<?xml version="1.0" encoding="UTF-8"?><svg id="Layer_2" xmlns="http://www.w3.org/2000/svg" viewBox="0 0 244.55 51.46"><defs><style>.cls-1{fill:#1c1c1c;}.cls-2{fill:#03f3f3;}</style></defs><g id="Two"><g><g><path class="cls-1" d="M60.98,25.84h-19.67v17.95h-3.76V9.07h3.76v12.94h19.67V9.07h3.76V43.79h-3.76V25.84Z"/><path class="cls-1" d="M73,43.79V9.07h20.46v3.7h-16.7v8.84h11.22v3.7h-11.22v14.65h17.82v3.83h-21.58Z"/><path class="cls-1" d="M129.19,25.74h-28.38v-3.83h28.38v3.83Z"/><path class="cls-1" d="M141.2,27.11v16.68h-3.76V0h12.44c1.89,0,3.63,.38,5.23,1.13,1.6,.75,2.99,1.76,4.18,3.02,1.18,1.26,2.12,2.7,2.8,4.32,.68,1.62,1.02,3.29,1.02,5.02,0,1.33-.18,2.64-.53,3.92-.35,1.29-.88,2.47-1.58,3.56-.71,1.09-1.55,2.05-2.54,2.89-.99,.84-2.1,1.53-3.33,2.06,.88,1.15,1.77,2.31,2.67,3.49,.9,1.17,1.79,2.34,2.67,3.49l8.32,10.9h-4.82l-12.8-16.68h-9.97Zm0-23.26V23.26h8.68c1.32,0,2.57-.25,3.74-.76,1.17-.51,2.17-1.2,3.01-2.06,.84-.86,1.5-1.89,1.99-3.09,.48-1.2,.73-2.46,.73-3.79s-.24-2.58-.73-3.75c-.49-1.17-1.15-2.2-1.99-3.09-.84-.89-1.84-1.58-3.01-2.09-1.17-.51-2.42-.76-3.74-.76h-8.68Z"/><path class="cls-1" d="M177.04,43.79V8.78h20.46v3.73h-16.7v8.92h11.22v3.73h-11.22v14.78h17.82v3.86h-21.58Z"/><path class="cls-1" d="M230.76,33.87c0,1.6-.34,3.01-1.02,4.25-.68,1.23-1.61,2.27-2.77,3.11-1.17,.84-2.54,1.48-4.12,1.91s-3.26,.65-5.02,.65c-.75,0-1.57-.07-2.47-.2-.9-.13-1.85-.3-2.84-.5-.99-.2-1.97-.42-2.94-.66-.97-.24-1.87-.49-2.71-.76l.99-3.21c1.54,.35,3.13,.69,4.79,1.04,1.65,.35,3.02,.52,4.12,.52h2.11c1.1,0,2.15-.14,3.14-.42,.99-.28,1.87-.69,2.64-1.23,.77-.54,1.38-1.22,1.81-2.04,.44-.82,.66-1.77,.66-2.85,0-.52-.11-1.05-.33-1.58-.22-.54-.46-.98-.73-1.33-.4-.52-.88-.94-1.45-1.26-.57-.32-1.2-.6-1.88-.84-.68-.24-1.38-.41-2.08-.52-.7-.11-1.36-.18-1.98-.23-1.23-.04-2.46-.17-3.7-.39-1.23-.21-2.42-.62-3.56-1.23-1.23-.78-2.29-1.83-3.17-3.17-.88-1.34-1.32-2.8-1.32-4.4,0-2.33,.88-4.31,2.64-5.95,1.76-1.64,4.09-2.76,7-3.36,.48-.09,1.17-.18,2.05-.29,.88-.11,1.72-.16,2.51-.16,.53,0,1.16,.06,1.88,.19,.73,.13,1.5,.29,2.31,.49,.81,.19,1.62,.42,2.41,.68,.79,.26,1.5,.5,2.11,.71l-.53,1.69c-.09,.17-.16,.36-.2,.55-.04,.19-.11,.53-.2,1-1.85-.6-3.46-1.04-4.82-1.3-1.36-.26-2.75-.39-4.16-.39-1.06,0-2.13,.12-3.23,.36-1.1,.24-2.11,.62-3.04,1.13-.92,.52-1.68,1.17-2.28,1.95-.59,.78-.89,1.71-.89,2.79,0,.65,.24,1.39,.73,2.24,.48,.84,1.1,1.52,1.85,2.04,.75,.48,1.52,.78,2.31,.91s1.61,.24,2.44,.32l-.07-.06h.46s.08,.01,.1,.03c.02,.02,.05,.03,.1,.03h.07c1.28,.09,2.62,.29,4.03,.62s2.75,.88,4.03,1.65c1.23,.82,2.24,1.92,3.04,3.31,.79,1.38,1.19,2.77,1.19,4.15Z"/></g><ellipse class="cls-2" cx="241.78" cy="48.78" rx="2.77" ry="2.67"/><polygon class="cls-2" points="3.97 47.63 3.97 4.12 17.54 4.12 17.54 43.79 21.45 43.79 21.45 4.12 38.85 4.12 38.85 .3 0 .3 0 4.12 0 4.12 0 47.63 0 51.46 230.76 51.46 230.76 47.63 3.97 47.63"/></g></g></svg>